PathFileType	4	(X/Y/Z)	C:\Users\Basilio\Documents\Thesis Gigler\squatting_fais\c3dfiles\040\SLS_pre_front3\markers_experimental.trc
DataRate	CameraRate	NumFrames	NumMarkers	Units	OrigDataRate	OrigDataStartFrame	OrigNumFrames
200.000000	200.000000	4	62	mm	200.000000	0	1116
Frame#	Time	FHD			LBHD			RBHD			C7			T10			CLAV			LSHO			LUUPA			LMUPA			LDUPA			LLEP			LMEP			LRAD			LUL			LRFIN			RSHO			RUPA1			RMUPA			RDUPA			RLEP			RMEP			RRAD			RUL			RUFIN			LASI			RASI			USACR			LSACR			RSACR			LTHI1			LTHI2			LTHI3			LTHI4			LLFC			LMFC			LTIB1			LTIB2			LTIB3			LTIB4			LLMAL			LMMAL			LHEE			LMT1			LMT2			LMT5			RTHI			RTHI2			RTHI3			RTHI4			RLFC			RMFC			RTIB1			RTIB2			RTIB3			RTIB4			RLMAL			RMMAL			RHEE			RMT1			RMT2			RMT5			*61			
		X1	Y1	Z1	X2	Y2	Z2	X3	Y3	Z3	X4	Y4	Z4	X5	Y5	Z5	X6	Y6	Z6	X7	Y7	Z7	X8	Y8	Z8	X9	Y9	Z9	X10	Y10	Z10	X11	Y11	Z11	X12	Y12	Z12	X13	Y13	Z13	X14	Y14	Z14	X15	Y15	Z15	X16	Y16	Z16	X17	Y17	Z17	X18	Y18	Z18	X19	Y19	Z19	X20	Y20	Z20	X21	Y21	Z21	X22	Y22	Z22	X23	Y23	Z23	X24	Y24	Z24	X25	Y25	Z25	X26	Y26	Z26	X27	Y27	Z27	X28	Y28	Z28	X29	Y29	Z29	X30	Y30	Z30	X31	Y31	Z31	X32	Y32	Z32	X33	Y33	Z33	X34	Y34	Z34	X35	Y35	Z35	X36	Y36	Z36	X37	Y37	Z37	X38	Y38	Z38	X39	Y39	Z39	X40	Y40	Z40	X41	Y41	Z41	X42	Y42	Z42	X43	Y43	Z43	X44	Y44	Z44	X45	Y45	Z45	X46	Y46	Z46	X47	Y47	Z47	X48	Y48	Z48	X49	Y49	Z49	X50	Y50	Z50	X51	Y51	Z51	X52	Y52	Z52	X53	Y53	Z53	X54	Y54	Z54	X55	Y55	Z55	X56	Y56	Z56	X57	Y57	Z57	X58	Y58	Z58	X59	Y59	Z59	X60	Y60	Z60	X61	Y61	Z61	X62	Y62	Z62	

1	0	-153.6336212158203	1767.148803710938	-1091.519165039063	-284.4599914550782	1734.715209960938	-1130.123168945313	-338.6606140136719	1702.507934570313	-997.271423339844	-360.3639221191407	1570.161865234375	-1044.864135742188	-388.852264404297	1249.817749023438	-1040.886474609375	-231.0842895507813	1499.565063476563	-1050.495727539063	-294.8516845703126	1529.786499023438	-1224.016845703125	-298.7203369140626	1315.405151367188	-1299.283813476563	-261.0721740722657	1294.7294921875	-1276.248657226563	-292.2681579589844	1246.729858398438	-1301.532348632813	-299.7996826171876	1183.668334960938	-1297.2294921875	-342.1716613769532	1177.111938476563	-1243.172973632813	-144.4539184570313	963.1806640625002	-1189.974853515625	-169.8721618652344	944.039978027344	-1259.64453125	-89.7361297607422	889.4248657226565	-1196.333251953125	-270.0562133789063	1508.882934570313	-875.0415649414065	-296.7401733398438	1295.008666992188	-794.273620605469	-258.4588623046876	1271.992309570313	-813.8638305664065	-291.5964965820313	1226.114013671875	-794.9035644531252	-282.6289062500001	1163.516235351563	-797.2122192382815	-322.1679077148438	1153.491821289063	-863.8047485351565	-118.9493865966797	936.7620849609377	-878.4250488281252	-164.2793731689453	912.226501464844	-822.2055664062502	-67.87602996826173	863.686218261719	-860.8422851562502	-204.3390197753907	1079.67333984375	-1153.157348632813	-199.7386474609376	1081.646728515625	-920.5427856445315	-387.7471313476564	1119.862548828125	-1032.0458984375	-395.2054748535157	1090.870483398438	-1059.83984375	-393.7595214843751	1090.1357421875	-1003.883056640625	-332.9617004394532	823.3380126953127	-1202.09130859375	-296.9892272949219	746.4832153320314	-1204.071655273438	-250.5905303955079	749.5509643554689	-1207.622314453125	-320.9433288574219	694.3770751953126	-1189.418823242188	-309.4342956542969	560.0720825195314	-1174.413330078125	-307.4121093750001	546.9660034179689	-1041.70068359375	-277.2085571289063	338.7073059082032	-1125.161499023438	-349.7038879394532	297.6309814453126	-1157.643432617188	-306.1402282714844	290.5813293457032	-1146.14013671875	-295.4619750976563	216.0718078613282	-1107.558959960938	-359.7684326171876	126.1228332519532	-1107.611572265625	-320.6028747558594	143.3707275390625	-1030.94970703125	-414.1602783203126	96.87676239013675	-1049.869873046875	-200.2327270507813	61.86108398437501	-1051.59423828125	-203.8441772460938	51.88077926635744	-1097.268920898438	-261.2778625488282	36.4214096069336	-1138.305786132813	-274.1721191406251	811.8579711914065	-853.2825927734377	-242.8504791259766	753.3612670898439	-855.4631958007815	-209.2607421875001	753.6848144531251	-858.9366455078127	-275.2162780761719	678.0093383789064	-871.512878417969	-276.7911376953126	541.7851562500001	-884.7047119140627	-261.8194580078126	536.1273803710939	-1017.485717773438	-230.6494140625001	354.9414062500001	-909.1153564453127	-303.9370117187501	279.4470520019532	-892.0925903320315	-258.2108764648438	273.9796752929688	-898.0623168945315	-240.0814514160157	230.3327178955079	-932.4673461914065	-295.4832153320313	118.9564361572266	-918.4038085937502	-271.6296386718751	132.0665740966797	-1002.204528808594	-353.6564025878907	81.2241897583008	-977.805114746094	-134.2520294189453	55.90002441406251	-974.1644287109377	-141.5460205078125	57.33687210083009	-935.434020996094	-187.1566925048828	36.21557235717774	-885.1354980468752	nan	nan	nan	
2	0.005	-153.6601257324219	1767.213623046875	-1091.423583984375	-284.3932189941407	1734.687377929688	-1130.104248046875	-338.6666259765626	1702.435791015625	-997.2597656250002	-360.2275085449219	1570.1396484375	-1044.962646484375	-388.7686157226564	1249.811889648438	-1041.008544921875	-231.0843353271485	1499.547485351563	-1050.555053710938	-294.8230895996094	1529.713134765625	-1224.072998046875	-298.6902465820313	1315.21728515625	-1299.141235351563	-260.9874572753907	1294.605834960938	-1276.093505859375	-292.2024230957032	1246.571533203125	-1301.332153320313	-299.7634887695313	1183.597045898438	-1297.071899414063	-342.0850219726563	1177.046752929688	-1242.83837890625	-144.5367736816407	962.3286132812502	-1191.254638671875	-170.8521270751953	943.245788574219	-1260.6064453125	-90.94087219238283	887.789489746094	-1197.682861328125	-270.0786437988282	1508.838256835938	-875.0501098632815	-296.8364868164063	1294.95751953125	-794.3645019531252	-258.7393798828126	1271.814208984375	-813.8850097656252	-291.7743835449219	1226.005737304688	-794.995544433594	-282.7217102050782	1163.417358398438	-797.2796020507815	-322.2731933593751	1153.418334960938	-863.8789062500002	-119.0757217407227	936.648864746094	-878.2739257812502	-164.4837646484375	912.1853637695315	-822.1504516601565	-68.04201507568361	863.4858398437502	-860.739440917969	-204.2446594238282	1079.604736328125	-1153.142578125	-199.7368927001954	1081.599365234375	-920.5220336914065	-387.8452453613282	1119.345092773438	-1032.2314453125	-394.9788513183595	1090.814453125	-1059.96728515625	-393.7751770019532	1090.178466796875	-1004.031188964844	-332.7870178222657	823.3138427734377	-1202.135620117188	-296.7801208496094	746.4216918945314	-1204.0302734375	-250.3866577148438	749.5078125000001	-1207.58984375	-320.7599792480469	694.3534545898439	-1189.425048828125	-309.2723083496094	560.0526733398439	-1174.346801757813	-307.3519287109376	546.9089355468751	-1041.635498046875	-277.0677185058594	337.7774353027344	-1125.260498046875	-349.6354064941407	297.6239624023438	-1157.627319335938	-306.1607666015626	291.2348632812501	-1145.978515625	-295.3605041503907	215.9259185791016	-1107.3857421875	-359.7328186035157	126.1515045166016	-1107.548217773438	-320.6302490234376	143.3564910888672	-1030.8466796875	-414.1740722656251	96.87178802490237	-1049.845336914063	-199.7025604248047	61.4713706970215	-1051.538940429688	-203.840805053711	51.88222122192384	-1097.238525390625	-261.3197631835938	36.48877334594727	-1138.306762695313	-274.2545166015626	811.8526000976565	-853.290222167969	-243.0064086914063	753.3782958984376	-855.4145507812502	-209.4464569091797	753.7324829101564	-858.7845458984377	-275.2725830078126	677.9779663085939	-871.5169067382815	-276.8413391113282	541.7807006835939	-884.7525634765627	-261.8482360839844	536.1177368164064	-1017.50439453125	-230.7285156250001	354.9382324218751	-909.1076660156252	-303.7642517089844	279.3820800781251	-892.1057128906252	-258.2247924804688	274.0135803222657	-898.116638183594	-240.1156768798829	230.3386383056641	-932.467956542969	-295.5039672851563	118.9387130737305	-918.4107666015627	-271.6559448242188	131.7211303710938	-1002.523254394531	-353.6538085937501	81.23943328857423	-977.7927856445315	-134.1874694824219	55.92078781127931	-973.4671020507815	-141.536361694336	57.31179428100587	-935.4322509765627	-187.179428100586	36.21247100830079	-885.129333496094	nan	nan	nan	
3	0.01	-153.5748443603516	1767.321655273438	-1091.361450195313	-284.4083862304688	1734.646118164063	-1130.098510742188	-338.6462707519532	1702.3232421875	-997.293884277344	-360.1938171386719	1570.094482421875	-1044.991821289063	-388.7403259277345	1249.755493164063	-1041.161376953125	-231.0492248535157	1499.4970703125	-1050.512939453125	-294.7595214843751	1529.626342773438	-1224.153564453125	-298.6217651367188	1315.101684570313	-1299.018310546875	-260.8682556152344	1294.454711914063	-1276.094360351563	-292.1351623535157	1246.413696289063	-1301.135375976563	-299.7352294921876	1183.56298828125	-1296.87548828125	-341.9411315917969	1177.034057617188	-1242.528686523438	-144.4724273681641	961.6486816406252	-1192.455688476563	-171.7848510742188	942.6394653320315	-1261.735473632813	-91.00483703613283	886.300231933594	-1200.400634765625	-270.1599121093751	1508.781860351563	-875.067810058594	-296.9137573242188	1294.912963867188	-794.4495849609377	-258.7879943847657	1271.765991210938	-813.9039306640627	-292.1490478515626	1225.96044921875	-794.9964599609377	-282.8251953125001	1163.331909179688	-797.301208496094	-322.4080505371094	1153.362060546875	-864.0563964843752	-119.2269668579102	936.5743408203127	-878.2476196289065	-164.6456298828125	912.1358642578127	-822.1862792968752	-68.08733367919923	863.4224853515627	-860.6777954101565	-204.0540008544922	1079.539794921875	-1153.098022460938	-199.8081970214844	1081.603393554688	-920.5034179687502	-387.8017883300782	1119.370483398438	-1032.373657226563	-394.859100341797	1090.795288085938	-1060.090698242188	-393.8172607421876	1090.17724609375	-1004.153869628906	-332.5687255859376	823.2650146484377	-1202.177124023438	-296.5952148437501	746.4056396484376	-1204.040649414063	-250.2256317138672	749.4973754882814	-1207.541748046875	-320.5024108886719	694.2950439453126	-1189.438232421875	-309.0838928222657	560.0227661132814	-1174.323974609375	-307.3644409179688	546.9205322265626	-1041.584228515625	-277.0764160156251	338.6025695800782	-1124.948486328125	-349.4869384765626	297.5951538085938	-1157.591186523438	-306.0346374511719	291.2257690429688	-1145.920166015625	-295.4035949707032	216.010238647461	-1107.418334960938	-359.6932067871094	126.1564865112305	-1107.486938476563	-320.6278076171876	143.3640441894532	-1030.746704101563	-414.1445312500001	96.87649536132815	-1049.82275390625	-200.193588256836	61.88661956787111	-1051.5810546875	-203.837387084961	51.86800765991212	-1097.212646484375	-261.2803649902344	36.47618103027344	-1138.266723632813	-274.3113708496094	811.8684082031252	-853.2493286132815	-243.0622558593751	753.3519287109376	-855.3524169921877	-209.5984954833985	753.7684326171876	-858.6854248046877	-275.5583801269532	677.9777832031251	-871.504089355469	-276.8856201171876	541.7764892578126	-884.7937011718752	-261.9724121093751	536.1328735351564	-1017.540161132813	-230.7401428222657	354.9443969726563	-909.207702636719	-304.0715026855469	279.4612121582032	-892.079284667969	-258.2388610839844	274.0258178710938	-898.134948730469	-240.1198425292969	230.3447265625001	-932.534851074219	-295.5316467285157	118.943229675293	-918.4194946289065	-271.6807556152344	132.1065063476563	-1002.165710449219	-353.6961364746094	81.25318145751955	-977.793395996094	-134.3303985595703	55.84803009033205	-974.1755981445315	-141.5216979980469	57.31651687622072	-935.406921386719	-187.1566925048828	36.21556854248048	-885.1354980468752	nan	nan	nan	
4	0.015	-153.6663665771485	1767.314697265625	-1091.313354492188	-284.3736877441407	1734.655517578125	-1130.086059570313	-338.6098632812501	1702.266357421875	-997.2890625000002	-360.2033081054688	1570.109741210938	-1045.0830078125	-388.6705627441407	1249.743286132813	-1041.355590820313	-231.0047302246094	1499.51806640625	-1050.5361328125	-294.4481811523438	1529.68359375	-1224.448608398438	-298.5162963867188	1314.944946289063	-1298.936889648438	-260.7765808105469	1294.294677734375	-1275.991455078125	-292.1812744140626	1246.306396484375	-1300.95947265625	-299.7570190429688	1183.5	-1296.640502929688	-341.7842712402344	1176.979614257813	-1242.158203125	-144.7583770751953	960.6832275390627	-1193.857421875	-173.0066833496094	941.9326782226565	-1262.665405273438	-91.6516799926758	885.9627685546877	-1202.6220703125	-270.2102355957032	1508.7216796875	-875.0546875000002	-296.9932250976563	1294.862060546875	-794.5260009765627	-258.8372192382813	1271.70556640625	-813.9769287109377	-292.2904357910157	1225.909423828125	-795.0522460937502	-282.9404907226563	1163.201171875	-797.3468017578127	-322.5099182128907	1153.258666992188	-864.1783447265627	-119.2802200317383	936.456970214844	-878.1485595703127	-164.8411865234375	912.0872192382815	-822.1625976562502	-68.26028442382814	863.2920532226565	-860.5840454101565	-203.9090118408204	1079.442504882813	-1153.05712890625	-199.7694091796876	1081.609985351563	-920.4521484375002	-387.7523193359376	1119.365966796875	-1032.538818359375	-394.8048095703126	1090.819458007813	-1060.256713867188	-393.6866455078126	1090.1796875	-1004.278930664063	-332.3832397460938	823.255554199219	-1202.23291015625	-296.3973083496094	746.3847656250001	-1204.056274414063	-249.996078491211	749.4631958007814	-1207.509399414063	-320.3632202148438	694.2835083007814	-1189.439331054688	-308.9273681640626	559.9996948242189	-1174.326538085938	-307.3504638671876	546.8868408203126	-1041.623291015625	-276.9772033691407	338.5966186523438	-1124.96142578125	-349.4309387207032	297.5842895507813	-1157.55078125	-306.6438903808594	290.4582519531251	-1145.50244140625	-295.3680725097657	216.0347137451172	-1107.398071289063	-359.6468505859376	126.1425323486328	-1107.430541992188	-320.6445007324219	143.3379516601563	-1030.707763671875	-414.1558227539064	96.88532257080081	-1049.832641601563	-199.7201385498047	61.35054779052736	-1051.4326171875	-203.8334503173829	51.87863540649415	-1097.216796875	-261.3084411621094	36.48593139648438	-1138.267456054688	-274.4603576660157	811.8776855468752	-853.271911621094	-243.1788787841797	753.3457031250001	-855.3848266601565	-209.7629394531251	753.7895507812501	-858.5876464843752	-275.6094665527344	677.9686279296876	-871.4739990234377	-276.9830627441407	541.7547607421876	-884.830505371094	-262.0808105468751	536.0734863281251	-1017.618408203125	-230.8453521728516	354.9798583984376	-909.1845703125002	-304.1354370117188	279.4779052734376	-892.0921630859377	-258.2388305664063	274.0258178710938	-898.134948730469	-240.0835418701172	230.3672637939454	-932.5571899414065	-295.5004882812501	118.9109649658203	-918.4331665039065	-271.5966796875001	132.0970764160157	-1002.265808105469	-353.6796569824219	81.23468017578126	-977.7667236328127	-134.3365936279297	56.13107299804689	-974.098327636719	-141.4686431884766	56.78119277954103	-935.7378540039065	-187.1566925048828	36.21556854248048	-885.1354980468752	nan	nan	nan	
